<svg width="350" height="351" viewBox="0 0 350 351" fill="none" xmlns="http://www.w3.org/2000/svg">
<path d="M137.172 207.56H90.692L87.871 174.917H134.351L137.172 207.56Z" fill="#585858"/>
<path d="M139.58 207.56H93.1L90.279 174.917H136.759L139.58 207.56Z" fill="#585858"/>
<path d="M99.456 200.547L97.902 181.923H130.403L131.957 200.547H99.456Z" fill="#585858"/>
<path d="M147.623 207.56H142.17V268.445H147.623V207.56Z" fill="#585858"/>
<path d="M149.345 207.56H145.558V268.445H149.345V207.56Z" fill="#585858"/>
<path d="M96.558 214.278H149.345V207.56H96.558V214.278Z" fill="#585858"/>
<path d="M98.42 214.278H92.967V268.445H98.42V214.278Z" fill="#585858"/>
<path d="M100.142 214.278H96.355V268.445H100.142V214.278Z" fill="#585858"/>
<path d="M59.605 214.278H54.152V268.445H59.605V214.278Z" fill="#585858"/>
<path d="M61.327 214.278H57.54V268.445H61.327V214.278Z" fill="#585858"/>
<path d="M113.113 214.278H107.66V268.445H113.113V214.278Z" fill="#585858"/>
<path d="M114.828 214.278H111.041V268.445H114.828V214.278Z" fill="#585858"/>
<path d="M96.558 207.56H54.152V214.278H96.558V207.56Z" fill="#585858"/>
<path d="M254.688 55.7458H90.657V147.329H254.688V55.7458Z" fill="#585858"/>
<path d="M263.697 55.7458H91.483V147.329H263.697V55.7458Z" fill="#585858"/>
<path d="M260.883 144.507V58.5679L94.297 58.5679V144.507H260.883Z" fill="#585858"/>
<path d="M161.749 144.507L193.2 58.5679H141.295L109.844 144.507H161.749Z" fill="#585858"/>
<path d="M211.708 144.507L243.159 58.5679H204.001L172.55 144.507H211.708Z" fill="#585858"/>
<path d="M306.677 180.976H292.733V268.445H306.677V180.976Z" fill="#585858"/>
<path d="M303.009 268.445H306.677V261.713H299.166L303.009 268.445Z" fill="#585858"/>
<path d="M178.115 180.976H164.171V268.445H178.115V180.976Z" fill="#585858"/>
<path d="M306.677 180.976H174.916V266.627H306.677V180.976Z" fill="#585858"/>
<path d="M304.185 208.613H177.415V184.422H304.185V208.613ZM178.115 207.911H303.485V185.124H178.115V207.911Z" fill="#585858"/>
<path d="M281.869 196.167H202.188C198.492 196.167 194.929 193.176 192.388 187.953L192.15 187.455H291.9L291.662 187.953C289.1 193.176 285.6 196.167 281.869 196.167ZM193.298 188.136C195.664 192.79 198.898 195.444 202.188 195.444H281.869C285.173 195.444 288.393 192.79 290.759 188.136H193.298Z" fill="#585858"/>
<path d="M178.584 268.445H174.916V261.713H182.427L178.584 268.445Z" fill="#585858"/>
<path d="M304.185 235.872H177.415V211.709H304.185V235.872ZM178.115 235.17H303.485V212.411H178.115V235.17Z" fill="#585858"/>
<path d="M281.869 223.454H202.188C198.492 223.454 194.929 220.456 192.388 215.24L192.15 214.735H291.9L291.662 215.24C289.1 220.428 285.6 223.454 281.869 223.454ZM193.298 215.437C195.664 220.091 198.898 222.752 202.188 222.752H281.869C285.173 222.752 288.393 220.091 290.759 215.437H193.298Z" fill="#585858"/>
<path d="M304.185 263.18H177.415V238.989H304.185V263.18ZM178.115 262.478H303.485V239.691H178.115V262.478Z" fill="#585858"/>
<path d="M281.869 250.733H202.188C198.492 250.733 194.929 247.743 192.388 242.527L192.15 242.022H291.9L291.662 242.527C289.1 247.743 285.6 250.733 281.869 250.733ZM193.298 242.724C195.664 247.378 198.898 250.031 202.188 250.031H281.869C285.173 250.031 288.393 247.378 290.759 242.724H193.298Z" fill="#585858"/>
<path d="M84.686 192.545V194.243H83.608L82.712 207.56H69.524L68.635 194.243H67.55V192.545H84.686Z" fill="#585858"/>
<path d="M80.346 159.501C79.268 151.569 68.593 149.308 55.048 149.014C42.161 148.74 38.031 144.17 38.031 144.17C38.031 144.17 38.073 162.681 56.644 169.393C74.277 175.753 81.431 167.448 80.346 159.501Z" fill="#585858"/>
<path d="M73.766 177.48C73.99 174.222 79.184 168.227 91.679 170.951C100.709 172.924 104.069 168.227 104.069 168.227C104.069 168.227 103.229 181.481 89.649 185.461C76.748 189.245 73.367 183.222 73.766 177.48Z" fill="#585858"/>
<path d="M76.615 197.543C76.6854 197.543 76.755 197.529 76.8191 197.5C76.8832 197.471 76.9402 197.428 76.986 197.374C77.889 196.3 77.147 193.731 76.125 190.172C74.809 185.609 73.171 179.923 74.557 175.802C75.3253 173.625 76.2229 171.497 77.245 169.428C79.205 165.272 80.899 161.706 79.485 157.929C79.463 157.869 79.4293 157.814 79.3858 157.767C79.3424 157.72 79.2901 157.682 79.232 157.655C79.1739 157.629 79.1112 157.614 79.0473 157.612C78.9835 157.61 78.92 157.621 78.8603 157.643C78.8006 157.666 78.746 157.701 78.6996 157.745C78.6533 157.789 78.6161 157.841 78.5902 157.9C78.5643 157.959 78.5503 158.022 78.5489 158.086C78.5475 158.15 78.5588 158.213 78.582 158.273C79.849 161.635 78.316 164.893 76.37 169.021C75.3349 171.123 74.4233 173.284 73.64 175.493C72.163 179.902 73.843 185.749 75.194 190.439C75.992 193.247 76.818 196.055 76.251 196.757C76.206 196.805 76.1716 196.862 76.1499 196.925C76.1281 196.987 76.1196 197.054 76.1249 197.12C76.1302 197.186 76.1491 197.25 76.1804 197.308C76.2118 197.367 76.2549 197.418 76.307 197.459C76.3965 197.522 76.5056 197.552 76.615 197.543Z" fill="#585858"/>
<path d="M175 300.147C249.958 300.147 310.723 296.589 310.723 292.2C310.723 287.812 249.958 284.254 175 284.254C100.042 284.254 39.277 287.812 39.277 292.2C39.277 296.589 100.042 300.147 175 300.147Z" fill="#585858"/>
<path d="M174.972 253.457H75.572L70.133 93.1414H169.533L174.972 253.457Z" fill="#8D91F7"/>
<path d="M179.935 248.48H80.535L75.089 88.1642H174.489L179.935 248.48Z" fill="#8D91F7"/>
<path opacity="0.3" d="M179.935 248.48H80.535L75.089 88.1642H174.489L179.935 248.48Z" fill="#FAFAFA"/>
<path d="M146.631 154.134C157.274 143.276 156.821 125.523 145.619 114.48C134.418 103.437 116.71 103.286 106.067 114.144C95.4238 125.001 95.8765 142.755 107.078 153.798C118.28 164.841 135.988 164.991 146.631 154.134Z" fill="#8D91F7"/>
<path d="M149.429 134.145C149.572 137.965 148.741 141.759 147.014 145.167C145.15 148.839 142.303 151.918 138.791 154.058C135.28 156.199 131.243 157.315 127.134 157.283C122.928 157.26 118.803 156.129 115.171 154.002C111.539 151.875 108.529 148.828 106.442 145.167C104.496 141.811 103.409 138.025 103.278 134.145C103.149 131.137 103.631 128.134 104.695 125.319C105.759 122.503 107.382 119.934 109.467 117.768C111.551 115.601 114.054 113.882 116.821 112.715C119.589 111.548 122.564 110.957 125.566 110.979C131.751 111.023 137.681 113.455 142.125 117.769C146.568 122.083 149.184 127.948 149.429 134.145Z" fill="#FAFAFA"/>
<path opacity="0.6" d="M147 145.167C145.136 148.839 142.289 151.918 138.777 154.058C135.266 156.199 131.229 157.315 127.12 157.283C122.914 157.26 118.789 156.129 115.157 154.002C111.525 151.875 108.515 148.828 106.428 145.167C112.348 141.119 119.353 138.967 126.518 138.996C133.798 139.012 140.916 141.156 147 145.167Z" fill="#8D91F7"/>
<path opacity="0.6" d="M133.54 133.568C137.454 129.576 137.287 123.047 133.168 118.987C129.05 114.926 122.538 114.871 118.625 118.863C114.711 122.856 114.877 129.384 118.996 133.444C123.115 137.505 129.627 137.56 133.54 133.568Z" fill="#8D91F7"/>
<path d="M159.964 190.425H96.558L96.131 177.789H159.537L159.964 190.425Z" fill="#FAFAFA"/>
<path d="M160.734 213.008H97.321L96.894 200.372H160.307L160.734 213.008Z" fill="#FAFAFA"/>
<path d="M136.262 202.113L120.981 204.219C120.835 204.235 120.694 204.282 120.567 204.356C120.441 204.43 120.33 204.529 120.243 204.648C120.157 204.767 120.095 204.902 120.063 205.046C120.031 205.189 120.029 205.338 120.057 205.482L122.066 215.753C122.132 216.054 122.308 216.32 122.559 216.498C122.81 216.676 123.119 216.753 123.424 216.714L138.705 214.608C138.85 214.59 138.991 214.542 139.117 214.467C139.243 214.392 139.352 214.292 139.438 214.173C139.524 214.053 139.585 213.918 139.617 213.774C139.648 213.631 139.65 213.482 139.622 213.338L137.62 203.068C137.554 202.767 137.378 202.502 137.127 202.325C136.875 202.148 136.566 202.072 136.262 202.113ZM131.873 212.516L129.073 212.889L128.8 209.575C128.511 209.45 128.257 209.257 128.059 209.013C127.86 208.768 127.723 208.48 127.659 208.171C127.608 207.932 127.607 207.685 127.657 207.445C127.706 207.206 127.806 206.98 127.948 206.781C128.091 206.583 128.273 206.416 128.484 206.293C128.694 206.17 128.929 206.092 129.171 206.065C129.668 206.001 130.171 206.126 130.581 206.416C130.99 206.706 131.277 207.139 131.383 207.631C131.444 207.927 131.425 208.235 131.329 208.522C131.233 208.809 131.064 209.066 130.837 209.266L131.873 212.516Z" fill="#8D91F7"/>
<path d="M134.75 201.558C134.48 201.593 134.207 201.525 133.984 201.368C133.761 201.21 133.605 200.975 133.546 200.709L133.35 199.705C133.07 198.335 132.305 197.113 131.195 196.266C130.085 195.42 128.707 195.005 127.316 195.1C126.614 195.14 125.929 195.331 125.307 195.66C124.685 195.99 124.141 196.449 123.712 197.008C123.283 197.567 122.979 198.211 122.821 198.898C122.662 199.586 122.653 200.299 122.794 200.99L123.018 202.148C123.044 202.276 123.043 202.409 123.015 202.537C122.987 202.665 122.933 202.785 122.856 202.891C122.779 202.997 122.681 203.085 122.568 203.151C122.454 203.216 122.329 203.257 122.199 203.271C121.928 203.309 121.653 203.242 121.43 203.085C121.206 202.927 121.051 202.69 120.995 202.422L120.806 201.446C120.614 200.534 120.607 199.592 120.787 198.678C120.967 197.763 121.329 196.895 121.853 196.124C122.376 195.354 123.049 194.697 123.831 194.194C124.614 193.691 125.489 193.352 126.406 193.197C128.393 192.863 130.433 193.308 132.101 194.442C133.769 195.575 134.939 197.309 135.366 199.284L135.59 200.435C135.616 200.565 135.615 200.699 135.585 200.828C135.556 200.958 135.5 201.079 135.421 201.185C135.342 201.291 135.241 201.379 135.125 201.444C135.01 201.508 134.882 201.547 134.75 201.558Z" fill="#8D91F7"/>
<path d="M150.269 230.705H108.99L108.717 222.478H149.989L150.269 230.705Z" fill="#8D91F7"/>
<path d="M130.354 184.107C130.366 184.407 130.318 184.706 130.211 184.987C130.105 185.267 129.943 185.524 129.734 185.74C129.526 185.955 129.277 186.127 129 186.243C128.724 186.359 128.427 186.418 128.128 186.416C127.511 186.411 126.919 186.169 126.475 185.739C126.031 185.309 125.768 184.725 125.741 184.107C125.729 183.806 125.777 183.507 125.884 183.226C125.99 182.946 126.153 182.689 126.361 182.474C126.569 182.258 126.818 182.086 127.095 181.97C127.371 181.854 127.668 181.795 127.967 181.797C128.585 181.8 129.178 182.042 129.622 182.472C130.067 182.902 130.329 183.488 130.354 184.107Z" fill="#585858"/>
<path d="M120.4 184.107C120.413 184.407 120.365 184.707 120.259 184.988C120.153 185.269 119.991 185.526 119.783 185.742C119.574 185.958 119.324 186.129 119.048 186.245C118.771 186.361 118.474 186.419 118.174 186.416C117.557 186.411 116.966 186.169 116.523 185.739C116.08 185.309 115.819 184.724 115.794 184.107C115.782 183.806 115.83 183.507 115.937 183.226C116.043 182.946 116.205 182.689 116.414 182.474C116.622 182.258 116.871 182.086 117.148 181.97C117.424 181.854 117.721 181.795 118.02 181.797C118.637 181.8 119.229 182.042 119.672 182.472C120.116 182.903 120.377 183.488 120.4 184.107Z" fill="#585858"/>
<path d="M110.509 184.107C110.521 184.407 110.473 184.706 110.366 184.987C110.26 185.267 110.098 185.524 109.889 185.74C109.681 185.955 109.432 186.127 109.155 186.243C108.879 186.359 108.582 186.418 108.283 186.416C107.666 186.413 107.074 186.171 106.631 185.741C106.187 185.31 105.926 184.725 105.903 184.107C105.891 183.806 105.939 183.507 106.046 183.226C106.152 182.946 106.315 182.689 106.523 182.474C106.731 182.258 106.98 182.086 107.257 181.97C107.533 181.854 107.83 181.795 108.129 181.797C108.746 181.8 109.338 182.042 109.781 182.472C110.225 182.903 110.486 183.488 110.509 184.107Z" fill="#585858"/>
<path d="M140.273 184.107C140.285 184.407 140.237 184.706 140.13 184.987C140.024 185.267 139.861 185.524 139.653 185.74C139.445 185.955 139.195 186.127 138.919 186.243C138.643 186.359 138.346 186.418 138.047 186.416C137.43 186.413 136.838 186.171 136.394 185.741C135.951 185.31 135.69 184.725 135.667 184.107C135.657 183.807 135.707 183.509 135.815 183.23C135.923 182.951 136.086 182.697 136.295 182.483C136.503 182.269 136.753 182.099 137.029 181.985C137.305 181.871 137.601 181.814 137.9 181.818C138.512 181.823 139.1 182.063 139.541 182.488C139.982 182.914 140.244 183.493 140.273 184.107Z" fill="#585858"/>
<path d="M150.192 184.107C150.205 184.407 150.157 184.707 150.051 184.988C149.945 185.269 149.783 185.526 149.575 185.742C149.366 185.958 149.116 186.129 148.84 186.245C148.563 186.361 148.266 186.419 147.966 186.416C147.349 186.411 146.758 186.169 146.315 185.739C145.872 185.309 145.611 184.724 145.586 184.107C145.574 183.806 145.622 183.507 145.729 183.226C145.835 182.946 145.997 182.689 146.206 182.474C146.414 182.258 146.663 182.086 146.94 181.97C147.216 181.854 147.513 181.795 147.812 181.797C148.429 181.8 149.021 182.042 149.464 182.472C149.908 182.903 150.169 183.488 150.192 184.107Z" fill="#585858"/>
<path d="M233.737 122.345C234.668 123.847 235.445 125.279 236.243 126.774C237.041 128.269 237.762 129.772 238.469 131.309C239.912 134.422 241.105 137.645 242.039 140.948C242.165 141.362 242.256 141.804 242.361 142.232L242.515 142.885L242.592 143.208L242.683 143.742C242.841 144.952 242.767 146.181 242.466 147.364C241.983 149.2 241.248 150.96 240.282 152.594C238.555 155.562 236.467 158.305 234.066 160.758L231.119 158.526C232.598 155.799 233.914 152.986 235.06 150.102C235.57 148.831 235.93 147.504 236.131 146.149C236.195 145.736 236.176 145.313 236.075 144.907L235.795 144.05C235.683 143.699 235.578 143.348 235.445 142.99C234.38 140.094 233.149 137.263 231.756 134.51C230.356 131.702 228.851 128.894 227.346 126.213L233.737 122.345Z" fill="#FF8B7B"/>
<path d="M231.868 157.55L228.648 159.256L232.344 163.594C232.344 163.594 234.654 162.029 234.759 159.642L231.868 157.55Z" fill="#FF8B7B"/>
<path d="M224.329 161.93L228.284 165.082L232.344 163.594L228.648 159.256L224.329 161.93Z" fill="#FF8B7B"/>
<path d="M210.805 99.3751C210.728 99.7682 210.455 100.042 210.203 99.9929C209.951 99.9437 209.804 99.5787 209.881 99.1926C209.958 98.8065 210.231 98.4906 210.49 98.5748C210.749 98.6591 210.882 98.982 210.805 99.3751Z" fill="#585858"/>
<path d="M210.49 100.049C209.785 101.149 208.932 102.145 207.956 103.011C208.187 103.251 208.466 103.438 208.775 103.559C209.085 103.68 209.417 103.733 209.748 103.713L210.49 100.049Z" fill="#FF5652"/>
<path d="M209.23 113.822V109.217L215.306 109.919C215.306 109.919 215.208 113.878 211.806 115.044L209.23 113.822Z" fill="#FF8B7B"/>
<path d="M210.98 105.904L215.257 107.139L215.334 109.954L209.258 109.217L210.98 105.904Z" fill="#FF8B7B"/>
<path opacity="0.2" d="M215.257 107.139L210.98 105.904L210.147 107.504C210.192 108.765 210.585 109.989 211.282 111.04C211.979 112.091 212.953 112.928 214.095 113.457C214.83 112.428 215.259 111.211 215.334 109.947L215.257 107.139Z" fill="#585858"/>
<path d="M212.667 97.5008C212.712 97.4996 212.755 97.4857 212.793 97.4607C212.83 97.4357 212.86 97.4006 212.878 97.3595C212.896 97.3184 212.903 97.2729 212.896 97.2284C212.89 97.1838 212.871 97.142 212.842 97.1077C212.596 96.8292 212.287 96.6138 211.941 96.4795C211.596 96.3451 211.223 96.2957 210.854 96.3354C210.794 96.3458 210.74 96.3796 210.704 96.4296C210.669 96.4796 210.655 96.5417 210.665 96.6022C210.675 96.6631 210.709 96.7177 210.758 96.7543C210.808 96.791 210.87 96.8069 210.931 96.7988C211.223 96.77 211.518 96.8117 211.791 96.9204C212.063 97.0291 212.306 97.2016 212.499 97.4236C212.52 97.447 212.546 97.4659 212.575 97.4792C212.604 97.4924 212.635 97.4998 212.667 97.5008Z" fill="#585858"/>
<path d="M221.613 106.479C220.913 110.095 220.479 115.1 223.013 117.508C223.013 117.508 222.033 121.172 215.313 121.172C207.956 121.172 211.778 117.957 211.778 117.957C214.837 117.002 214.809 113.513 214.109 110.705L221.613 106.479Z" fill="#FF8B7B"/>
<path d="M224.378 119.923C225.036 118.996 225.008 116.055 224.308 115.535C223.181 114.7 218.344 114.503 211.841 116.005C212.541 118.856 211.036 120.344 211.036 120.344L224.378 119.923Z" fill="#8D91F7"/>
<path d="M246.26 286.584C246.06 286.655 245.848 286.685 245.637 286.673C245.426 286.661 245.219 286.607 245.028 286.514C244.956 286.447 244.906 286.359 244.886 286.262C244.866 286.165 244.877 286.064 244.916 285.974C244.938 285.898 244.976 285.828 245.028 285.768C245.08 285.709 245.145 285.662 245.217 285.63C245.882 285.307 247.408 285.932 247.478 285.96C247.499 285.968 247.517 285.983 247.529 286.002C247.542 286.02 247.548 286.042 247.548 286.065C247.548 286.088 247.542 286.11 247.531 286.129C247.52 286.149 247.504 286.165 247.485 286.177C247.09 286.351 246.68 286.488 246.26 286.584ZM245.455 285.791C245.409 285.802 245.364 285.819 245.322 285.84C245.278 285.856 245.239 285.883 245.207 285.917C245.176 285.951 245.153 285.992 245.14 286.037C245.077 286.248 245.14 286.318 245.182 286.339C245.448 286.563 246.428 286.339 247.121 286.079C246.594 285.86 246.025 285.762 245.455 285.791Z" fill="#8D91F7"/>
<path d="M247.457 286.184H247.401C246.841 286.023 245.651 285.173 245.637 284.619C245.636 284.531 245.666 284.445 245.721 284.376C245.776 284.307 245.852 284.259 245.938 284.24C246.021 284.209 246.11 284.196 246.198 284.204C246.287 284.211 246.372 284.238 246.449 284.282C247.107 284.619 247.527 285.981 247.541 286.044C247.551 286.061 247.556 286.08 247.556 286.1C247.556 286.12 247.551 286.139 247.541 286.156C247.53 286.167 247.517 286.175 247.502 286.18C247.488 286.185 247.472 286.187 247.457 286.184ZM246.057 284.436H246.001C245.861 284.485 245.861 284.556 245.861 284.591C245.861 284.921 246.659 285.588 247.261 285.854C247.114 285.461 246.792 284.682 246.365 284.45C246.27 284.407 246.162 284.402 246.064 284.436H246.057Z" fill="#8D91F7"/>
<path d="M209.902 287.413C209.272 287.413 208.663 287.322 208.46 287.041C208.407 286.966 208.378 286.876 208.378 286.785C208.378 286.693 208.407 286.603 208.46 286.528C208.5 286.46 208.553 286.4 208.617 286.353C208.681 286.306 208.754 286.272 208.831 286.255C209.65 286.03 211.372 287.013 211.442 287.055C211.463 287.065 211.481 287.083 211.491 287.105C211.501 287.126 211.504 287.151 211.498 287.174C211.495 287.198 211.485 287.221 211.469 287.238C211.452 287.256 211.431 287.268 211.407 287.272C210.91 287.364 210.407 287.411 209.902 287.413ZM209.125 286.451C209.051 286.439 208.975 286.439 208.901 286.451C208.854 286.461 208.809 286.48 208.769 286.508C208.729 286.536 208.696 286.571 208.67 286.613C208.586 286.76 208.621 286.83 208.67 286.872C208.901 287.195 210.14 287.202 211.057 287.069C210.458 286.741 209.802 286.531 209.125 286.451Z" fill="#8D91F7"/>
<path d="M211.4 287.272H211.351C210.756 287.006 209.58 285.939 209.671 285.377C209.671 285.244 209.783 285.082 210.105 285.054C210.22 285.041 210.337 285.051 210.447 285.085C210.558 285.119 210.661 285.175 210.749 285.251C211.198 285.789 211.467 286.454 211.519 287.153C211.519 287.173 211.514 287.193 211.506 287.211C211.497 287.229 211.485 287.245 211.47 287.258C211.448 287.269 211.424 287.274 211.4 287.272ZM210.196 285.272H210.126C209.916 285.272 209.902 285.37 209.902 285.398C209.846 285.735 210.644 286.577 211.253 286.943C211.199 286.379 210.972 285.847 210.602 285.419C210.487 285.321 210.34 285.268 210.189 285.272H210.196Z" fill="#8D91F7"/>
<path d="M216.804 287.16H211.883L211.393 275.725H216.314L216.804 287.16Z" fill="#FF8B7B"/>
<path d="M252.945 284.872L248.136 285.918L243.299 275.268L248.115 274.222L252.945 284.872Z" fill="#FF8B7B"/>
<path d="M247.667 285.433L253.078 284.261C253.173 284.241 253.271 284.253 253.358 284.297C253.444 284.34 253.513 284.412 253.554 284.5L255.43 288.585C255.48 288.684 255.506 288.793 255.505 288.904C255.505 289.015 255.479 289.124 255.428 289.223C255.378 289.322 255.304 289.407 255.215 289.472C255.125 289.537 255.021 289.579 254.912 289.596C253.022 289.968 252.077 290.059 249.704 290.572C248.241 290.895 244.937 291.702 242.914 292.137C240.891 292.573 240.198 290.628 240.989 290.27C244.524 288.648 245.994 287.223 246.953 285.897C247.126 285.66 247.38 285.495 247.667 285.433Z" fill="#585858"/>
<path d="M211.918 286.584H217.294C217.392 286.585 217.486 286.619 217.562 286.68C217.639 286.741 217.692 286.826 217.714 286.921L218.687 291.309C218.716 291.415 218.719 291.526 218.697 291.634C218.675 291.741 218.628 291.842 218.559 291.928C218.491 292.014 218.404 292.083 218.305 292.129C218.205 292.175 218.096 292.197 217.987 292.193C216.048 292.158 213.248 292.046 210.812 292.046C207.956 292.046 205.499 292.2 202.153 292.2C200.13 292.2 199.57 290.151 200.417 289.961C204.267 289.119 207.417 289.027 210.742 286.971C211.091 286.736 211.498 286.602 211.918 286.584Z" fill="#585858"/>
<path d="M231.819 118.638C236.432 119.698 240.219 131.513 240.219 131.513L231 138.582C228.607 136.016 226.919 132.872 226.1 129.456C224.469 123.264 227.101 117.543 231.819 118.638Z" fill="#8D91F7"/>
<path opacity="0.4" d="M231.819 118.638C236.432 119.698 240.219 131.513 240.219 131.513L231 138.582C228.607 136.016 226.919 132.872 226.1 129.456C224.469 123.264 227.101 117.543 231.819 118.638Z" fill="#585858"/>
<path d="M207.55 132.727C206.402 133.97 205.254 135.079 204.05 136.237C203.455 136.799 202.853 137.36 202.237 137.901L201.306 138.722L201.075 138.926L200.676 139.249C200.265 139.578 199.811 139.847 199.325 140.049C198.785 140.279 198.204 140.398 197.617 140.4C197.115 140.402 196.618 140.314 196.147 140.14C195.625 139.941 195.149 139.638 194.747 139.249C194.234 138.746 193.858 138.12 193.655 137.431C193.549 137.091 193.481 136.74 193.452 136.385C193.415 135.969 193.415 135.551 193.452 135.135C193.487 134.798 193.529 134.503 193.585 134.229C193.777 133.272 194.048 132.333 194.397 131.421C194.712 130.555 195.074 129.707 195.482 128.88C195.93 127.989 196.357 127.336 196.784 126.592C198.518 123.742 200.498 121.051 202.699 118.547C204.878 116.058 207.28 113.774 209.874 111.723L212.45 114.384C210.644 116.813 208.866 119.417 207.221 121.98C205.584 124.527 204.088 127.164 202.741 129.877C202.44 130.537 202.041 131.281 201.852 131.815C201.602 132.434 201.384 133.067 201.201 133.71C201.025 134.289 200.891 134.88 200.802 135.479C200.797 135.573 200.797 135.666 200.802 135.76C200.802 135.816 200.802 135.844 200.802 135.697C200.79 135.539 200.76 135.383 200.711 135.233C200.56 134.736 200.282 134.286 199.906 133.928C199.571 133.619 199.179 133.38 198.751 133.226C198.375 133.083 197.977 133.009 197.575 133.008C197.189 133.003 196.805 133.077 196.448 133.226C196.327 133.275 196.21 133.334 196.098 133.401L196.364 133.155L197.211 132.383L198.884 130.811C199.99 129.765 201.103 128.649 202.153 127.61L207.55 132.727Z" fill="#FF8B7B"/>
<path opacity="0.2" d="M227.864 127.315C230.37 129.8 231.189 134.335 231.364 138.266L230.958 138.582C228.565 136.016 226.877 132.872 226.058 129.456C225.967 129.091 225.883 128.754 225.82 128.354L227.864 127.315Z" fill="#585858"/>
<path d="M202.657 123.552C201.649 128.887 201.019 139.845 203.938 161.537H230.3C230.482 157.487 227.941 137.704 231.84 118.603C228.927 118.042 225.981 117.669 223.02 117.487C219.29 117.272 215.55 117.272 211.82 117.487C210.588 117.599 209.37 117.782 208.32 117.971C206.924 118.217 205.634 118.882 204.623 119.878C203.612 120.875 202.926 122.156 202.657 123.552Z" fill="#8D91F7"/>
<path opacity="0.4" d="M202.657 123.552C201.649 128.887 201.019 139.845 203.938 161.537H230.3C230.482 157.487 227.941 137.704 231.84 118.603C228.927 118.042 225.981 117.669 223.02 117.487C219.29 117.272 215.55 117.272 211.82 117.487C210.588 117.599 209.37 117.782 208.32 117.971C206.924 118.217 205.634 118.882 204.623 119.878C203.612 120.875 202.926 122.156 202.657 123.552Z" fill="#585858"/>
<path opacity="0.2" d="M206.689 131.464L201.929 130.319C201.782 133.212 201.768 136.792 201.978 141.221C204.169 138.722 206.969 134.819 206.689 131.464Z" fill="#585858"/>
<path opacity="0.2" d="M211.393 275.725L211.645 281.621H216.573L216.321 275.725H211.393Z" fill="#585858"/>
<path opacity="0.2" d="M248.115 274.222L243.299 275.268L245.791 280.758L250.607 279.712L248.115 274.222Z" fill="#585858"/>
<path d="M223.951 101.2C222.691 105.932 222.187 108.768 219.275 110.733C214.9 113.724 209.44 110.298 209.3 105.3C209.146 100.786 211.239 93.8012 216.3 92.8465C217.412 92.6372 218.559 92.7153 219.633 93.0736C220.707 93.4318 221.672 94.0583 222.437 94.8941C223.203 95.7299 223.743 96.7474 224.008 97.8507C224.273 98.954 224.253 100.107 223.951 101.2Z" fill="#FF8B7B"/>
<path d="M212.905 101.376C212.667 100.744 211.582 95.8511 212.604 94.5804C213.626 93.3098 225.281 94.2294 227.003 95.9283C229.866 98.7363 227.878 101.263 224.749 104.514C222.397 106.957 222.306 109.709 221.116 110.13C219.016 110.832 215.81 110.172 215.166 107.947C214.522 105.721 212.905 101.376 212.905 101.376Z" fill="#FFF3B2"/>
<path d="M225.589 90.3614C221.473 88.6064 213.752 90.551 209.58 89.5401C209.527 91.0958 210.037 92.6183 211.016 93.8261C211.995 95.0339 213.377 95.8455 214.907 96.1108C218.368 96.7722 221.884 97.099 225.407 97.0866C229.985 96.876 229.089 91.8567 225.589 90.3614Z" fill="#FFF3B2"/>
<path d="M226.233 96.0757C227.737 96.2241 229.251 95.934 230.594 95.2403C231.364 97.1076 227.129 97.6201 226.233 96.0757Z" fill="#585858"/>
<path d="M215.145 101.572C215.05 102.79 214.558 103.942 213.745 104.851C212.667 106.037 211.547 105.293 211.358 103.854C211.19 102.548 211.54 100.344 212.856 99.7121C214.172 99.0803 215.236 100.105 215.145 101.572Z" fill="#FF8B7B"/>
<path d="M213.283 161.558C213.283 161.558 218.883 199.291 221.942 213.429C225.295 228.908 243.313 280.119 243.313 280.119L252.126 278.203C252.126 278.203 239.526 236.462 236.726 214.819C234.556 198.196 230.293 161.544 230.293 161.544L213.283 161.558Z" fill="#8D91F7"/>
<path d="M241.199 277.178C241.164 277.178 242.844 280.379 242.844 280.379L252.756 278.224L251.923 275.233L241.199 277.178Z" fill="#585858"/>
<path opacity="0.3" d="M216.818 175.002C223.279 176.272 222.593 200.435 221.816 212.867C219.954 204.078 217.224 187.174 215.362 175.177C215.813 174.954 216.327 174.892 216.818 175.002Z" fill="#585858"/>
<path d="M203.938 161.558C203.938 161.558 203.238 198.476 203.798 213.506C204.358 229.168 209.811 280.449 209.811 280.449H218.155C218.155 280.449 218.456 230.08 218.855 214.7C219.261 197.936 221.277 161.53 221.277 161.53L203.938 161.558Z" fill="#8D91F7"/>
<path d="M208.208 277.15C208.166 277.15 208.677 280.617 208.677 280.617H218.82L219.1 277.522L208.208 277.15Z" fill="#585858"/>
<path d="M212.975 125.195C215.334 131.576 201.467 139.094 201.467 139.094L195.461 131.372C195.461 131.372 199.5 123.355 204.4 119.747C210.455 115.296 211.176 120.337 212.975 125.195Z" fill="#8D91F7"/>
<path opacity="0.4" d="M212.975 125.195C215.334 131.576 201.467 139.094 201.467 139.094L195.461 131.372C195.461 131.372 199.5 123.355 204.4 119.747C210.455 115.296 211.176 120.337 212.975 125.195Z" fill="#585858"/>
<path d="M267.309 76.7497C281.261 76.7497 292.572 69.5209 292.572 60.6037C292.572 51.6865 281.261 44.4577 267.309 44.4577C253.357 44.4577 242.046 51.6865 242.046 60.6037C242.046 69.5209 253.357 76.7497 267.309 76.7497Z" fill="#8D91F7"/>
<path d="M258.195 68.7328C256.531 68.7275 254.922 68.134 253.65 67.0569C252.379 65.9797 251.527 64.4877 251.244 62.8431C250.966 61.0616 251.366 59.2402 252.366 57.7417C253.366 56.2431 254.893 55.1771 256.641 54.756C258.076 54.4245 259.578 54.5523 260.937 55.1214C262.295 55.6906 263.442 56.6725 264.215 57.9291L280.434 54.5735C281.057 54.4366 281.709 54.5405 282.259 54.8646C282.81 55.1886 283.218 55.7089 283.402 56.3215C283.487 56.6435 283.505 56.9796 283.456 57.3091C283.407 57.6385 283.292 57.9545 283.117 58.2377C282.942 58.5209 282.711 58.7653 282.439 58.9561C282.167 59.1468 281.858 59.2799 281.533 59.3471L281.113 59.4313C281.051 59.4426 280.992 59.468 280.941 59.5058C280.89 59.5435 280.848 59.5925 280.819 59.649C280.793 59.7063 280.78 59.7685 280.78 59.8315C280.78 59.8944 280.793 59.9567 280.819 60.014L281.106 60.7581C281.202 60.9993 281.211 61.2666 281.132 61.5139C281.053 61.7612 280.89 61.9731 280.672 62.113C280.5 62.2196 280.354 62.3642 280.246 62.5357C280.139 62.7072 280.071 62.9012 280.049 63.1028C280.028 63.3342 279.935 63.5532 279.783 63.7284C279.631 63.9037 279.428 64.0262 279.202 64.0786L278.873 64.1488C278.645 64.191 278.409 64.1594 278.201 64.0584C277.992 63.9574 277.82 63.7924 277.711 63.5872C277.566 63.3423 277.348 63.149 277.088 63.0343C276.828 62.9195 276.539 62.889 276.26 62.9469C275.982 63.0049 275.729 63.1484 275.536 63.3576C275.343 63.5667 275.22 63.8311 275.184 64.1137C275.165 64.3436 275.073 64.5614 274.922 64.7355C274.771 64.9097 274.568 65.0312 274.344 65.0824L274.015 65.1526C273.787 65.1938 273.552 65.1616 273.343 65.0608C273.135 64.9599 272.963 64.7955 272.853 64.591C272.748 64.4169 272.607 64.2677 272.439 64.1538C272.271 64.0399 272.08 63.9639 271.88 63.9312C271.611 63.8987 271.363 63.7688 271.182 63.5658C271.002 63.3629 270.901 63.1009 270.9 62.829V62.0287C270.897 61.9661 270.881 61.9049 270.852 61.8492C270.824 61.7935 270.783 61.7446 270.734 61.7059C270.685 61.6673 270.628 61.6397 270.567 61.6252C270.507 61.6106 270.443 61.6094 270.382 61.6216L265.209 62.6886C264.998 64.1259 264.351 65.463 263.355 66.5181C262.359 67.5732 261.063 68.2951 259.644 68.5854C259.167 68.6832 258.682 68.7326 258.195 68.7328ZM256.795 55.3948C255.207 55.7668 253.819 56.7281 252.91 58.0854C252.001 59.4427 251.638 61.095 251.895 62.7097C252.17 64.2119 252.973 65.5656 254.157 66.5261C255.341 67.4866 256.829 67.9904 258.351 67.9463C259.873 67.9021 261.33 67.3131 262.457 66.2857C263.584 65.2582 264.307 63.8603 264.495 62.3446V62.0919L270.2 60.9336C270.364 60.8939 270.534 60.8913 270.699 60.9258C270.864 60.9604 271.019 61.0314 271.153 61.1335C271.287 61.2357 271.397 61.3665 271.474 61.5165C271.551 61.6665 271.594 61.8319 271.6 62.0007V62.8009C271.602 62.8962 271.636 62.988 271.697 63.0609C271.758 63.1338 271.843 63.1833 271.936 63.2011C272.242 63.245 272.534 63.3583 272.79 63.5322C273.046 63.7061 273.259 63.9362 273.413 64.2049C273.45 64.2807 273.51 64.343 273.584 64.3833C273.658 64.4235 273.742 64.4397 273.826 64.4296L274.148 64.3594C274.23 64.3383 274.302 64.2914 274.355 64.2257C274.408 64.1599 274.439 64.0788 274.442 63.9943C274.486 63.5573 274.668 63.1457 274.96 62.819C275.253 62.4922 275.642 62.2673 276.07 62.1766C276.499 62.086 276.945 62.1343 277.344 62.3147C277.744 62.4951 278.076 62.7981 278.292 63.18C278.328 63.2552 278.386 63.3173 278.459 63.3576C278.532 63.3978 278.615 63.4143 278.698 63.4047L279.034 63.3345C279.114 63.3121 279.185 63.2647 279.237 63.199C279.289 63.1334 279.318 63.053 279.321 62.9694C279.356 62.6612 279.46 62.365 279.626 62.1034C279.792 61.8418 280.016 61.6218 280.28 61.4601C280.357 61.4043 280.414 61.3243 280.44 61.2327C280.467 61.1412 280.462 61.0433 280.427 60.9547L280.14 60.2106C280.081 60.0571 280.055 59.8926 280.066 59.7284C280.077 59.5642 280.123 59.4043 280.202 59.2599C280.28 59.1155 280.39 58.9901 280.522 58.8924C280.654 58.7947 280.805 58.727 280.966 58.6942L281.393 58.603C281.624 58.5536 281.843 58.4579 282.036 58.3217C282.23 58.1856 282.394 58.0117 282.518 57.8105C282.643 57.6093 282.726 57.3849 282.763 57.1508C282.799 56.9166 282.788 56.6776 282.73 56.4478C282.593 56.0061 282.295 55.6324 281.895 55.402C281.495 55.1715 281.023 55.1012 280.574 55.2053L263.9 58.6802L263.774 58.4626C263.104 57.2666 262.064 56.3217 260.811 55.7708C259.559 55.2199 258.161 55.0929 256.83 55.4089L256.795 55.3948ZM258.195 66.1214C257.326 66.1311 256.472 65.8872 255.738 65.4194C254.87 64.8479 254.226 63.9922 253.917 62.9981C253.608 62.004 253.652 60.9331 254.042 59.968C254.432 59.0029 255.144 58.2032 256.056 57.7054C256.968 57.2076 258.024 57.0425 259.043 57.2381C260.063 57.4337 260.984 57.978 261.649 58.7782C262.313 59.5784 262.68 60.585 262.687 61.6263C262.695 62.6676 262.342 63.6793 261.688 64.4887C261.035 65.2982 260.122 65.8553 259.105 66.0652C258.807 66.1193 258.505 66.1428 258.202 66.1354L258.195 66.1214ZM258.195 57.8308C257.934 57.8323 257.674 57.8581 257.418 57.908C256.93 58.0122 256.468 58.2116 256.057 58.495C255.646 58.7784 255.295 59.1402 255.024 59.5597C254.752 59.9792 254.566 60.4481 254.475 60.9398C254.385 61.4315 254.392 61.9363 254.496 62.4254C254.599 62.9144 254.798 63.3782 255.081 63.7901C255.363 64.2021 255.724 64.5542 256.142 64.8264C256.561 65.0985 257.028 65.2854 257.519 65.3763C258.009 65.4672 258.512 65.4604 259 65.3562C259.732 65.2034 260.403 64.8366 260.927 64.3021C261.452 63.7677 261.807 63.0894 261.948 62.3529C262.088 61.6164 262.008 60.8546 261.718 60.1635C261.428 59.4724 260.94 58.883 260.316 58.4696C259.696 58.0563 258.967 57.8386 258.223 57.8448L258.195 57.8308Z" fill="#FAFAFA"/>
<path opacity="0.6" d="M246.75 86.2196C251.335 86.2196 255.052 83.8436 255.052 80.9125C255.052 77.9815 251.335 75.6054 246.75 75.6054C242.165 75.6054 238.448 77.9815 238.448 80.9125C238.448 83.8436 242.165 86.2196 246.75 86.2196Z" fill="#8D91F7"/>
<path opacity="0.3" d="M233.541 88.3959C235.424 88.3959 236.95 87.4215 236.95 86.2197C236.95 85.0178 235.424 84.0435 233.541 84.0435C231.658 84.0435 230.132 85.0178 230.132 86.2197C230.132 87.4215 231.658 88.3959 233.541 88.3959Z" fill="#8D91F7"/>
</svg>
