<!DOCTYPE svg PUBLIC "-//W3C//DTD SVG 1.1//EN" "http://www.w3.org/Graphics/SVG/1.1/DTD/svg11.dtd">
<!-- Uploaded to: SVG Repo, www.svgrepo.com, Transformed by: SVG Repo Mixer Tools -->
<svg width="800px" height="800px" viewBox="0 0 16 16" xmlns="http://www.w3.org/2000/svg" fill="#000000">
<g id="SVGRepo_bgCarrier" stroke-width="0"/>
<g id="SVGRepo_tracerCarrier" stroke-linecap="round" stroke-linejoin="round"/>
<g id="SVGRepo_iconCarrier"> <path fill-rule="evenodd" clip-rule="evenodd" d="M4 0a4 4 0 00-4 4v8a4 4 0 004 4h8a4 4 0 004-4V4a4 4 0 00-4-4H4zm7.293 3.292a3 3 0 00-4.001 4.001l-4 4a1 1 0 101.415 1.414l4-4a3 3 0 004.001-4.001l-2 2.001a1 1 0 11-1.415-1.414l2-2z" fill="#ffffff"/> </g>
</svg>