<svg width="248" height="56" viewBox="0 0 248 56" fill="none" xmlns="http://www.w3.org/2000/svg">
<rect x="145.565" y="6" width="77.5996" height="43.7377" rx="21.8689" stroke="#8D91F7" stroke-width="10"/>
<path d="M234.732 3.31293C240.766 10.6826 249.214 30.8046 234.732 52.3352" stroke="#8D91F7" stroke-width="10"/>
<path d="M133.996 3.31293C127.962 10.6826 119.514 30.8046 133.996 52.3352" stroke="#8D91F7" stroke-width="10"/>
<rect x="146.73" y="44.951" width="20.8189" height="9.78667" fill="#8D91F7"/>
<path d="M17.55 30.36C16.51 30.36 15.75 30.09 15.27 29.55C14.79 28.99 14.55 28.26 14.55 27.36C14.55 26.44 15 23.98 15.9 19.98C14.2 20.02 12.84 20.18 11.82 20.46C11.24 23.28 10.35 25.72 9.15 27.78C8.53 28.82 7.78 29.64 6.9 30.24C6.02 30.86 5.06 31.17 4.02 31.17C2.98 31.17 2.13 30.82 1.47 30.12C0.81 29.44 0.48 28.54 0.48 27.42C0.48 25.82 1.14 24.32 2.46 22.92C3.78 21.5 5.45 20.36 7.47 19.5C7.65 17.66 7.74 16.16 7.74 15C7.74 13.82 7.62 12.99 7.38 12.51C7.16 12.03 6.8 11.79 6.3 11.79C5.8 11.79 5.14 11.98 4.32 12.36C3.5 12.72 2.73 13.21 2.01 13.83L1.26 12.75C1.98 11.87 3.04 11.04 4.44 10.26C5.84 9.46 7.19 9.06 8.49 9.06C11.11 9.06 12.42 11.05 12.42 15.03C12.42 15.97 12.34 17.1 12.18 18.42C13.48 18.16 14.87 17.99 16.35 17.91C17.03 14.75 17.37 12.25 17.37 10.41C17.37 10.07 17.35 9.81 17.31 9.63C18.91 9.01 20.52 8.7 22.14 8.7C22.2 8.86 22.23 9.14 22.23 9.54C22.23 10.78 21.74 13.61 20.76 18.03C23.16 18.21 24.8 18.45 25.68 18.75C25.7 18.83 25.71 18.98 25.71 19.2C25.71 19.62 25.52 20.15 25.14 20.79C23.84 20.39 22.24 20.13 20.34 20.01C19.64 23.37 19.29 25.55 19.29 26.55C19.29 27.53 19.53 28.02 20.01 28.02C20.27 28.02 20.55 27.97 20.85 27.87L21.3 29.04C19.86 29.92 18.61 30.36 17.55 30.36ZM3.72 28.29C4.36 28.29 4.99 27.74 5.61 26.64C6.23 25.54 6.73 23.9 7.11 21.72C5.99 22.2 4.97 22.95 4.05 23.97C3.13 24.99 2.67 25.97 2.67 26.91C2.67 27.35 2.77 27.69 2.97 27.93C3.19 28.17 3.44 28.29 3.72 28.29ZM24.1437 24.81C24.1437 22.31 24.8937 20.34 26.3937 18.9C27.9137 17.44 29.6337 16.71 31.5537 16.71C32.7337 16.71 33.7037 17 34.4637 17.58C35.2237 18.16 35.6037 18.94 35.6037 19.92C35.6037 20.88 35.3537 21.69 34.8537 22.35C34.3737 23.01 33.7837 23.52 33.0837 23.88C31.6637 24.58 30.3637 25.02 29.1837 25.2L28.4637 25.29C28.6037 27.17 29.3737 28.11 30.7737 28.11C31.2537 28.11 31.7637 27.99 32.3037 27.75C32.8437 27.51 33.2637 27.27 33.5637 27.03L34.0137 26.67L34.7337 27.63C34.5737 27.85 34.2537 28.14 33.7737 28.5C33.2937 28.86 32.8437 29.16 32.4237 29.4C31.2637 30.04 29.9937 30.36 28.6137 30.36C27.2337 30.36 26.1437 29.87 25.3437 28.89C24.5437 27.91 24.1437 26.55 24.1437 24.81ZM28.4337 23.82C29.4537 23.64 30.2637 23.21 30.8637 22.53C31.4637 21.85 31.7637 20.97 31.7637 19.89C31.7637 18.81 31.4437 18.27 30.8037 18.27C30.0437 18.27 29.4537 18.92 29.0337 20.22C28.6337 21.5 28.4337 22.7 28.4337 23.82ZM43.0561 18.57C43.0561 19.41 42.7861 20.86 42.2461 22.92C41.7061 24.96 41.4361 26.3 41.4361 26.94C41.4361 27.56 41.5261 27.87 41.7061 27.87C41.8261 27.87 42.2861 27.68 43.0861 27.3L43.4461 27.12L43.9561 28.17C43.7761 28.33 43.5361 28.53 43.2361 28.77C42.9361 29.01 42.3761 29.34 41.5561 29.76C40.7361 30.16 39.9761 30.36 39.2761 30.36C38.5761 30.36 38.0261 30.15 37.6261 29.73C37.2261 29.29 37.0261 28.71 37.0261 27.99C37.0261 27.25 37.2761 25.95 37.7761 24.09C38.2761 22.21 38.5261 20.99 38.5261 20.43C38.5261 19.59 38.2661 18.8 37.7461 18.06L37.4761 17.7L37.5061 17.31C38.5661 17.01 40.2861 16.86 42.6661 16.86C42.9261 17.16 43.0561 17.73 43.0561 18.57ZM39.6361 13.59C39.2361 13.19 39.0361 12.66 39.0361 12C39.0361 11.34 39.3061 10.76 39.8461 10.26C40.4061 9.76 41.0461 9.51 41.7661 9.51C42.4861 9.51 43.0461 9.71 43.4461 10.11C43.8461 10.51 44.0461 11.04 44.0461 11.7C44.0461 12.34 43.7561 12.91 43.1761 13.41C42.6161 13.91 41.9861 14.16 41.2861 14.16C40.5861 14.16 40.0361 13.97 39.6361 13.59ZM46.4299 30.09H45.8599C45.8599 29.15 46.1399 27.35 46.6999 24.69C47.2799 22.03 47.5699 20.52 47.5699 20.16C47.5699 19.5 47.2899 18.8 46.7299 18.06L46.4599 17.7L46.4899 17.31C47.5699 17.01 49.2999 16.86 51.6799 16.86C51.9599 17.24 52.0999 17.86 52.0999 18.72C53.8999 17.38 55.3299 16.71 56.3899 16.71C57.7299 16.71 58.5199 17.4 58.7599 18.78C59.2999 18.34 59.9999 17.89 60.8599 17.43C61.7399 16.95 62.5199 16.71 63.1999 16.71C63.8999 16.71 64.4799 16.94 64.9399 17.4C65.3999 17.84 65.6299 18.46 65.6299 19.26C65.6299 20.06 65.4099 21.38 64.9699 23.22C64.5299 25.06 64.3099 26.3 64.3099 26.94C64.3099 27.56 64.3999 27.87 64.5799 27.87C64.6999 27.87 65.1099 27.68 65.8099 27.3L66.1399 27.12L66.6799 28.17C66.1599 28.69 65.4499 29.19 64.5499 29.67C63.6699 30.13 62.8899 30.36 62.2099 30.36C60.7099 30.36 59.9599 29.51 59.9599 27.81C59.9599 27.19 60.1699 25.95 60.5899 24.09C61.0299 22.21 61.2499 20.99 61.2499 20.43C61.2499 19.85 61.0799 19.56 60.7399 19.56C60.1599 19.56 59.4999 19.78 58.7599 20.22C58.7199 20.62 58.4399 21.98 57.9199 24.3C57.4199 26.62 57.1699 28.42 57.1699 29.7C56.5899 29.96 55.2299 30.09 53.0899 30.09C53.0499 29.87 53.0299 29.34 53.0299 28.5C53.0299 27.66 53.2599 26.23 53.7199 24.21C54.1999 22.19 54.4399 20.91 54.4399 20.37C54.4399 19.83 54.2499 19.56 53.8699 19.56C53.2699 19.56 52.6099 19.8 51.8899 20.28C51.8499 20.46 51.6499 21.34 51.2899 22.92C50.5699 26.08 50.2099 28.33 50.2099 29.67C49.5099 29.95 48.2499 30.09 46.4299 30.09ZM82.4712 28.17C80.7712 29.63 79.2712 30.36 77.9712 30.36C76.6912 30.36 75.9512 29.72 75.7512 28.44C75.1512 29.04 74.4812 29.51 73.7412 29.85C73.0012 30.19 72.3512 30.36 71.7912 30.36C70.8312 30.36 70.0112 29.94 69.3312 29.1C68.6512 28.26 68.3112 26.96 68.3112 25.2C68.3112 22.56 68.8712 20.49 69.9912 18.99C71.1112 17.47 72.3712 16.71 73.7712 16.71C75.1912 16.71 76.3812 17.03 77.3412 17.67C77.9612 14.43 78.2712 11.88 78.2712 10.02L78.1212 8.76C79.6212 8.24 81.0912 7.98 82.5312 7.98C82.6912 8.32 82.7712 8.71 82.7712 9.15C82.7712 10.61 82.3312 13.58 81.4512 18.06C80.5712 22.52 80.1312 25.55 80.1312 27.15C80.1312 27.63 80.2412 27.87 80.4612 27.87C80.5812 27.87 80.9612 27.68 81.6012 27.3L81.9012 27.12L82.4712 28.17ZM75.2412 18.48C74.5412 18.48 73.9312 19.17 73.4112 20.55C72.9112 21.93 72.6612 23.3 72.6612 24.66C72.6612 26 72.7512 26.86 72.9312 27.24C73.1312 27.62 73.4212 27.81 73.8012 27.81C74.4612 27.81 75.1112 27.54 75.7512 27C75.8112 26.2 76.2612 23.54 77.1012 19.02C76.4212 18.66 75.8012 18.48 75.2412 18.48ZM92.8498 17.58C92.8898 17.54 92.9998 17.28 93.1798 16.8C94.1198 16.8 95.3798 17.08 96.9598 17.64C96.4598 19.3 96.0598 21.04 95.7598 22.86C95.4598 24.66 95.3098 25.95 95.3098 26.73C95.3098 27.49 95.3898 27.87 95.5498 27.87C95.6698 27.87 96.1098 27.68 96.8698 27.3L97.2298 27.12L97.7698 28.17C97.5898 28.33 97.3498 28.53 97.0498 28.77C96.7698 29.01 96.2298 29.34 95.4298 29.76C94.6298 30.16 93.9098 30.36 93.2698 30.36C92.0298 30.36 91.3098 29.8 91.1098 28.68C89.8298 29.8 88.6698 30.36 87.6298 30.36C86.6098 30.36 85.7398 29.96 85.0198 29.16C84.3198 28.36 83.9698 27.1 83.9698 25.38C83.9698 22.7 84.5198 20.59 85.6198 19.05C86.7198 17.49 88.0498 16.71 89.6098 16.71C90.7298 16.71 91.8098 17 92.8498 17.58ZM89.4298 27.81C89.9098 27.81 90.4498 27.62 91.0498 27.24C91.1898 24.42 91.6598 21.63 92.4598 18.87C91.8598 18.61 91.3498 18.48 90.9298 18.48C90.2098 18.48 89.5898 19.19 89.0698 20.61C88.5698 22.01 88.3198 23.56 88.3198 25.26C88.3198 26.96 88.6898 27.81 89.4298 27.81ZM101.234 30.36C100.554 30.36 99.9838 30.13 99.5238 29.67C99.0838 29.21 98.8638 28.57 98.8638 27.75C98.8638 26.91 99.3538 24.26 100.334 19.8C101.334 15.32 101.834 12.09 101.834 10.11L101.654 8.79C103.214 8.25 104.674 7.98 106.034 7.98C106.234 8.26 106.334 8.75 106.334 9.45C106.334 11.05 105.824 14.15 104.804 18.75C103.804 23.33 103.304 26 103.304 26.76C103.304 27.5 103.394 27.87 103.574 27.87L105.674 27.12L106.214 28.17C105.534 28.71 104.704 29.21 103.724 29.67C102.764 30.13 101.934 30.36 101.234 30.36ZM109.803 30.36C109.123 30.36 108.553 30.13 108.093 29.67C107.653 29.21 107.433 28.57 107.433 27.75C107.433 26.91 107.923 24.26 108.903 19.8C109.903 15.32 110.403 12.09 110.403 10.11L110.223 8.79C111.783 8.25 113.243 7.98 114.603 7.98C114.803 8.26 114.903 8.75 114.903 9.45C114.903 11.05 114.393 14.15 113.373 18.75C112.373 23.33 111.873 26 111.873 26.76C111.873 27.5 111.963 27.87 112.143 27.87L114.243 27.12L114.783 28.17C114.103 28.71 113.273 29.21 112.293 29.67C111.333 30.13 110.503 30.36 109.803 30.36Z" fill="#585858"/>
<path d="M16.7319 47.0552L14.1611 37.3945H15.4795L16.9443 43.73C17.1152 44.4624 17.252 45.1216 17.3545 45.7075L17.7866 43.9204L19.6323 37.3945H21.1704L22.5547 42.2798C22.9062 43.5249 23.1577 44.6675 23.3091 45.7075C23.4116 45.2046 23.5703 44.5015 23.7852 43.5981L25.3013 37.3945H26.5903L23.939 47.0552H22.7085L20.6724 39.6943C20.4966 39.0547 20.394 38.6763 20.3647 38.5591C20.272 38.9839 20.1792 39.3623 20.0864 39.6943L18.0356 47.0552H16.7319ZM32.4277 44.7993L33.6509 44.9531C33.2456 46.4619 32.2202 47.2163 30.5747 47.2163C29.5005 47.2163 28.668 46.8794 28.0771 46.2056C27.5156 45.5659 27.2349 44.7017 27.2349 43.6128C27.2349 42.5288 27.5059 41.6523 28.0479 40.9834C28.6338 40.2607 29.4541 39.8994 30.5088 39.8994C31.5391 39.8994 32.3374 40.2559 32.9038 40.9688C33.4312 41.6279 33.6948 42.4849 33.6948 43.5396C33.6948 43.6128 33.6924 43.7202 33.6875 43.8618H28.4653C28.5044 44.5454 28.6924 45.0996 29.0293 45.5244C29.4053 45.998 29.9229 46.2349 30.582 46.2349C31.4658 46.2349 32.0811 45.7563 32.4277 44.7993ZM28.5312 42.8804H32.4424C32.3887 42.2944 32.2373 41.8525 31.9883 41.5547C31.6123 41.1006 31.124 40.8735 30.5234 40.8735C29.9473 40.8735 29.4761 41.0664 29.1099 41.4521C28.7632 41.8232 28.5703 42.2993 28.5312 42.8804ZM40.0449 47.0552V37.3945H41.356L46.4316 44.9824V37.3945H47.6621V47.0552H46.3511L41.2754 39.46V47.0552H40.0449ZM54.459 44.7993L55.6821 44.9531C55.2769 46.4619 54.2515 47.2163 52.606 47.2163C51.5317 47.2163 50.6992 46.8794 50.1084 46.2056C49.5469 45.5659 49.2661 44.7017 49.2661 43.6128C49.2661 42.5288 49.5371 41.6523 50.0791 40.9834C50.665 40.2607 51.4854 39.8994 52.54 39.8994C53.5703 39.8994 54.3687 40.2559 54.9351 40.9688C55.4624 41.6279 55.7261 42.4849 55.7261 43.5396C55.7261 43.6128 55.7236 43.7202 55.7188 43.8618H50.4966C50.5356 44.5454 50.7236 45.0996 51.0605 45.5244C51.4365 45.998 51.9541 46.2349 52.6133 46.2349C53.4971 46.2349 54.1123 45.7563 54.459 44.7993ZM50.5625 42.8804H54.4736C54.4199 42.2944 54.2686 41.8525 54.0195 41.5547C53.6436 41.1006 53.1553 40.8735 52.5547 40.8735C51.9785 40.8735 51.5073 41.0664 51.1411 41.4521C50.7944 41.8232 50.6016 42.2993 50.5625 42.8804ZM59.1245 47.0552L56.4585 40.0532H57.7109L59.2197 44.25C59.3809 44.7041 59.5298 45.1729 59.6665 45.6562C59.769 45.29 59.9155 44.8457 60.106 44.3232L61.6587 40.0532H62.8818L60.2305 47.0552H59.1245ZM68.7266 44.7993L69.9497 44.9531C69.5444 46.4619 68.519 47.2163 66.8735 47.2163C65.7993 47.2163 64.9668 46.8794 64.376 46.2056C63.8145 45.5659 63.5337 44.7017 63.5337 43.6128C63.5337 42.5288 63.8047 41.6523 64.3467 40.9834C64.9326 40.2607 65.7529 39.8994 66.8076 39.8994C67.8379 39.8994 68.6362 40.2559 69.2026 40.9688C69.73 41.6279 69.9937 42.4849 69.9937 43.5396C69.9937 43.6128 69.9912 43.7202 69.9863 43.8618H64.7642C64.8032 44.5454 64.9912 45.0996 65.3281 45.5244C65.7041 45.998 66.2217 46.2349 66.8809 46.2349C67.7646 46.2349 68.3799 45.7563 68.7266 44.7993ZM64.8301 42.8804H68.7412C68.6875 42.2944 68.5361 41.8525 68.2871 41.5547C67.9111 41.1006 67.4229 40.8735 66.8223 40.8735C66.2461 40.8735 65.7749 41.0664 65.4087 41.4521C65.062 41.8232 64.8691 42.2993 64.8301 42.8804ZM71.4365 47.0552V40.0532H72.4985V41.1152C72.9478 40.3047 73.4531 39.8994 74.0146 39.8994C74.415 39.8994 74.8228 40.0264 75.2378 40.2803L74.8276 41.3789C74.5396 41.208 74.249 41.1226 73.9561 41.1226C73.3848 41.1226 73.0063 41.418 72.8208 42.0088C72.689 42.4238 72.623 42.8853 72.623 43.3931V47.0552H71.4365ZM80.4233 43.9497L81.6245 43.8472C81.7368 44.7896 82.1958 45.4365 83.0015 45.7881C83.4409 45.9785 83.9341 46.0737 84.481 46.0737C85.5063 46.0737 86.2144 45.8027 86.605 45.2607C86.7905 45.0068 86.8833 44.731 86.8833 44.4331C86.8833 43.813 86.5049 43.3589 85.748 43.0708C85.4453 42.9536 84.8398 42.79 83.9316 42.5801C83.1504 42.3994 82.5596 42.2041 82.1592 41.9941C81.2461 41.5107 80.7896 40.8101 80.7896 39.8921C80.7896 39.3647 80.9385 38.8911 81.2363 38.4712C81.5293 38.0659 81.9224 37.7607 82.4155 37.5557C82.9478 37.3359 83.541 37.2261 84.1953 37.2261C85.6992 37.2261 86.7515 37.6802 87.3521 38.5884C87.645 39.0376 87.8013 39.5454 87.8208 40.1118L86.5977 40.207C86.4658 38.9717 85.6821 38.354 84.2466 38.354C83.6606 38.354 83.1748 38.4492 82.7891 38.6396C82.2764 38.8887 82.02 39.2769 82.02 39.8042C82.02 40.2974 82.2983 40.6733 82.855 40.9321C83.0845 41.0396 83.5752 41.1787 84.3271 41.3496C85.3721 41.584 86.085 41.7891 86.4658 41.9648C87.5645 42.4678 88.1138 43.2539 88.1138 44.3232C88.1138 44.875 87.9551 45.3779 87.6377 45.832C87.3301 46.2666 86.9199 46.6035 86.4072 46.8428C85.8555 47.0967 85.2329 47.2236 84.5396 47.2236C82.8208 47.2236 81.6245 46.7109 80.9507 45.6855C80.6138 45.1729 80.438 44.5942 80.4233 43.9497ZM89.6885 47.0552V37.3945H90.875V47.0552H89.6885ZM97.5107 44.7993L98.7339 44.9531C98.3286 46.4619 97.3032 47.2163 95.6577 47.2163C94.5835 47.2163 93.751 46.8794 93.1602 46.2056C92.5986 45.5659 92.3179 44.7017 92.3179 43.6128C92.3179 42.5288 92.5889 41.6523 93.1309 40.9834C93.7168 40.2607 94.5371 39.8994 95.5918 39.8994C96.6221 39.8994 97.4204 40.2559 97.9868 40.9688C98.5142 41.6279 98.7778 42.4849 98.7778 43.5396C98.7778 43.6128 98.7754 43.7202 98.7705 43.8618H93.5483C93.5874 44.5454 93.7754 45.0996 94.1123 45.5244C94.4883 45.998 95.0059 46.2349 95.665 46.2349C96.5488 46.2349 97.1641 45.7563 97.5107 44.7993ZM93.6143 42.8804H97.5254C97.4717 42.2944 97.3203 41.8525 97.0713 41.5547C96.6953 41.1006 96.207 40.8735 95.6064 40.8735C95.0303 40.8735 94.5591 41.0664 94.1929 41.4521C93.8462 41.8232 93.6533 42.2993 93.6143 42.8804ZM105.025 44.7993L106.249 44.9531C105.843 46.4619 104.818 47.2163 103.172 47.2163C102.098 47.2163 101.266 46.8794 100.675 46.2056C100.113 45.5659 99.8325 44.7017 99.8325 43.6128C99.8325 42.5288 100.104 41.6523 100.646 40.9834C101.231 40.2607 102.052 39.8994 103.106 39.8994C104.137 39.8994 104.935 40.2559 105.501 40.9688C106.029 41.6279 106.292 42.4849 106.292 43.5396C106.292 43.6128 106.29 43.7202 106.285 43.8618H101.063C101.102 44.5454 101.29 45.0996 101.627 45.5244C102.003 45.998 102.521 46.2349 103.18 46.2349C104.063 46.2349 104.679 45.7563 105.025 44.7993ZM101.129 42.8804H105.04C104.986 42.2944 104.835 41.8525 104.586 41.5547C104.21 41.1006 103.722 40.8735 103.121 40.8735C102.545 40.8735 102.074 41.0664 101.708 41.4521C101.361 41.8232 101.168 42.2993 101.129 42.8804ZM107.743 49.7358V40.0532H108.827V40.9614C109.334 40.2534 110.011 39.8994 110.855 39.8994C112.115 39.8994 112.989 40.4854 113.478 41.6572C113.707 42.2188 113.822 42.834 113.822 43.5029C113.822 45.0459 113.321 46.1299 112.32 46.7549C111.827 47.0625 111.312 47.2163 110.775 47.2163C110.013 47.2163 109.398 46.9209 108.929 46.3301V49.7358H107.743ZM108.819 43.5981C108.819 44.3062 108.951 44.8945 109.215 45.3633C109.542 45.9443 110.035 46.2349 110.694 46.2349C111.368 46.2349 111.874 45.9297 112.21 45.3193C112.479 44.8359 112.613 44.228 112.613 43.4956C112.613 42.7974 112.479 42.2065 112.21 41.7231C111.878 41.1274 111.39 40.8296 110.746 40.8296C110.096 40.8296 109.596 41.1445 109.244 41.7744C108.961 42.2871 108.819 42.895 108.819 43.5981Z" fill="#8D91F7"/>
</svg>
