<svg width="227" height="227" viewBox="0 0 227 227" fill="none" xmlns="http://www.w3.org/2000/svg">
<g clip-path="url(#clip0_103_1600)">
<path d="M0 7.09375C0 5.21237 0.747375 3.40805 2.07771 2.07771C3.40805 0.747375 5.21237 0 7.09375 0L49.6562 0C51.5376 0 53.3419 0.747375 54.6723 2.07771C56.0026 3.40805 56.75 5.21237 56.75 7.09375C56.75 8.97513 56.0026 10.7795 54.6723 12.1098C53.3419 13.4401 51.5376 14.1875 49.6562 14.1875H14.1875V49.6562C14.1875 51.5376 13.4401 53.3419 12.1098 54.6723C10.7795 56.0026 8.97513 56.75 7.09375 56.75C5.21237 56.75 3.40805 56.0026 2.07771 54.6723C0.747375 53.3419 0 51.5376 0 49.6562V7.09375ZM170.25 7.09375C170.25 5.21237 170.997 3.40805 172.328 2.07771C173.658 0.747375 175.462 0 177.344 0L219.906 0C221.788 0 223.592 0.747375 224.922 2.07771C226.253 3.40805 227 5.21237 227 7.09375V49.6562C227 51.5376 226.253 53.3419 224.922 54.6723C223.592 56.0026 221.788 56.75 219.906 56.75C218.025 56.75 216.221 56.0026 214.89 54.6723C213.56 53.3419 212.812 51.5376 212.812 49.6562V14.1875H177.344C175.462 14.1875 173.658 13.4401 172.328 12.1098C170.997 10.7795 170.25 8.97513 170.25 7.09375ZM7.09375 170.25C8.97513 170.25 10.7795 170.997 12.1098 172.328C13.4401 173.658 14.1875 175.462 14.1875 177.344V212.812H49.6562C51.5376 212.812 53.3419 213.56 54.6723 214.89C56.0026 216.221 56.75 218.025 56.75 219.906C56.75 221.788 56.0026 223.592 54.6723 224.922C53.3419 226.253 51.5376 227 49.6562 227H7.09375C5.21237 227 3.40805 226.253 2.07771 224.922C0.747375 223.592 0 221.788 0 219.906V177.344C0 175.462 0.747375 173.658 2.07771 172.328C3.40805 170.997 5.21237 170.25 7.09375 170.25ZM219.906 170.25C221.788 170.25 223.592 170.997 224.922 172.328C226.253 173.658 227 175.462 227 177.344V219.906C227 221.788 226.253 223.592 224.922 224.922C223.592 226.253 221.788 227 219.906 227H177.344C175.462 227 173.658 226.253 172.328 224.922C170.997 223.592 170.25 221.788 170.25 219.906C170.25 218.025 170.997 216.221 172.328 214.89C173.658 213.56 175.462 212.812 177.344 212.812H212.812V177.344C212.812 175.462 213.56 173.658 214.89 172.328C216.221 170.997 218.025 170.25 219.906 170.25ZM56.75 56.75H70.9375V70.9375H56.75V56.75Z" fill="#FAFAFA"/>
<path d="M99.3125 28.375H28.375V99.3125H99.3125V28.375ZM42.5625 42.5625H85.125V85.125H42.5625V42.5625ZM70.9375 156.062H56.75V170.25H70.9375V156.062Z" fill="#FAFAFA"/>
<path d="M99.3125 127.688H28.375V198.625H99.3125V127.688ZM42.5625 141.875H85.125V184.438H42.5625V141.875ZM156.062 56.75H170.25V70.9375H156.062V56.75Z" fill="#FAFAFA"/>
<path d="M127.688 28.375H198.625V99.3125H127.688V28.375ZM141.875 42.5625V85.125H184.438V42.5625H141.875ZM113.5 113.5V141.875H127.688V156.062H113.5V170.25H141.875V141.875H156.062V170.25H170.25V156.062H198.625V141.875H156.062V113.5H113.5ZM141.875 141.875H127.688V127.688H141.875V141.875ZM198.625 170.25H184.438V184.438H156.062V198.625H198.625V170.25ZM141.875 198.625V184.438H113.5V198.625H141.875Z" fill="#FAFAFA"/>
<path d="M170.25 127.688H198.625V113.5H170.25V127.688Z" fill="#FAFAFA"/>
</g>
<defs>
<clipPath id="clip0_103_1600">
<rect width="227" height="227" fill="white"/>
</clipPath>
</defs>
</svg>
