<svg width="244" height="191" viewBox="0 0 244 191" fill="none" xmlns="http://www.w3.org/2000/svg">
<rect x="48.7902" y="12" width="147.148" height="82.5366" rx="41.2683" stroke="#8D91F7" stroke-width="20"/>
<path d="M218.47 6.41382C229.984 20.4758 246.104 58.8704 218.47 99.953" stroke="#8D91F7" stroke-width="20"/>
<path d="M26.2579 6.41382C14.744 20.4758 -1.37558 58.8704 26.2579 99.953" stroke="#8D91F7" stroke-width="20"/>
<rect x="50.5546" y="85.863" width="39.7244" height="18.6739" fill="#8D91F7"/>
<path d="M56.25 156.6C54.5167 156.6 53.25 156.15 52.45 155.25C51.65 154.317 51.25 153.1 51.25 151.6C51.25 150.067 52 145.967 53.5 139.3C50.6667 139.367 48.4 139.633 46.7 140.1C45.7333 144.8 44.25 148.867 42.25 152.3C41.2167 154.033 39.9667 155.4 38.5 156.4C37.0333 157.433 35.4333 157.95 33.7 157.95C31.9667 157.95 30.55 157.367 29.45 156.2C28.35 155.067 27.8 153.567 27.8 151.7C27.8 149.033 28.9 146.533 31.1 144.2C33.3 141.833 36.0833 139.933 39.45 138.5C39.75 135.433 39.9 132.933 39.9 131C39.9 129.033 39.7 127.65 39.3 126.85C38.9333 126.05 38.3333 125.65 37.5 125.65C36.6667 125.65 35.5667 125.967 34.2 126.6C32.8333 127.2 31.55 128.017 30.35 129.05L29.1 127.25C30.3 125.783 32.0667 124.4 34.4 123.1C36.7333 121.767 38.9833 121.1 41.15 121.1C45.5167 121.1 47.7 124.417 47.7 131.05C47.7 132.617 47.5667 134.5 47.3 136.7C49.4667 136.267 51.7833 135.983 54.25 135.85C55.3833 130.583 55.95 126.417 55.95 123.35C55.95 122.783 55.9167 122.35 55.85 122.05C58.5167 121.017 61.2 120.5 63.9 120.5C64 120.767 64.05 121.233 64.05 121.9C64.05 123.967 63.2333 128.683 61.6 136.05C65.6 136.35 68.3333 136.75 69.8 137.25C69.8333 137.383 69.85 137.633 69.85 138C69.85 138.7 69.5333 139.583 68.9 140.65C66.7333 139.983 64.0667 139.55 60.9 139.35C59.7333 144.95 59.15 148.583 59.15 150.25C59.15 151.883 59.55 152.7 60.35 152.7C60.7833 152.7 61.25 152.617 61.75 152.45L62.5 154.4C60.1 155.867 58.0167 156.6 56.25 156.6ZM33.2 153.15C34.2667 153.15 35.3167 152.233 36.35 150.4C37.3833 148.567 38.2167 145.833 38.85 142.2C36.9833 143 35.2833 144.25 33.75 145.95C32.2167 147.65 31.45 149.283 31.45 150.85C31.45 151.583 31.6167 152.15 31.95 152.55C32.3167 152.95 32.7333 153.15 33.2 153.15ZM67.2395 147.35C67.2395 143.183 68.4895 139.9 70.9895 137.5C73.5228 135.067 76.3895 133.85 79.5895 133.85C81.5561 133.85 83.1728 134.333 84.4395 135.3C85.7061 136.267 86.3395 137.567 86.3395 139.2C86.3395 140.8 85.9228 142.15 85.0895 143.25C84.2895 144.35 83.3061 145.2 82.1395 145.8C79.7728 146.967 77.6061 147.7 75.6395 148L74.4395 148.15C74.6728 151.283 75.9561 152.85 78.2895 152.85C79.0895 152.85 79.9395 152.65 80.8395 152.25C81.7395 151.85 82.4395 151.45 82.9395 151.05L83.6895 150.45L84.8895 152.05C84.6228 152.417 84.0895 152.9 83.2895 153.5C82.4895 154.1 81.7395 154.6 81.0395 155C79.1061 156.067 76.9895 156.6 74.6895 156.6C72.3895 156.6 70.5728 155.783 69.2395 154.15C67.9061 152.517 67.2395 150.25 67.2395 147.35ZM74.3895 145.7C76.0895 145.4 77.4395 144.683 78.4395 143.55C79.4395 142.417 79.9395 140.95 79.9395 139.15C79.9395 137.35 79.4061 136.45 78.3395 136.45C77.0728 136.45 76.0895 137.533 75.3895 139.7C74.7228 141.833 74.3895 143.833 74.3895 145.7ZM98.7602 136.95C98.7602 138.35 98.3102 140.767 97.4102 144.2C96.5102 147.6 96.0602 149.833 96.0602 150.9C96.0602 151.933 96.2102 152.45 96.5102 152.45C96.7102 152.45 97.4768 152.133 98.8102 151.5L99.4102 151.2L100.26 152.95C99.9602 153.217 99.5602 153.55 99.0602 153.95C98.5602 154.35 97.6268 154.9 96.2602 155.6C94.8935 156.267 93.6268 156.6 92.4602 156.6C91.2935 156.6 90.3768 156.25 89.7102 155.55C89.0435 154.817 88.7102 153.85 88.7102 152.65C88.7102 151.417 89.1268 149.25 89.9602 146.15C90.7935 143.017 91.2102 140.983 91.2102 140.05C91.2102 138.65 90.7768 137.333 89.9102 136.1L89.4602 135.5L89.5102 134.85C91.2768 134.35 94.1435 134.1 98.1102 134.1C98.5435 134.6 98.7602 135.55 98.7602 136.95ZM93.0602 128.65C92.3935 127.983 92.0602 127.1 92.0602 126C92.0602 124.9 92.5102 123.933 93.4102 123.1C94.3435 122.267 95.4102 121.85 96.6102 121.85C97.8102 121.85 98.7435 122.183 99.4102 122.85C100.077 123.517 100.41 124.4 100.41 125.5C100.41 126.567 99.9268 127.517 98.9602 128.35C98.0268 129.183 96.9768 129.6 95.8102 129.6C94.6435 129.6 93.7268 129.283 93.0602 128.65ZM104.383 156.15H103.433C103.433 154.583 103.9 151.583 104.833 147.15C105.8 142.717 106.283 140.2 106.283 139.6C106.283 138.5 105.817 137.333 104.883 136.1L104.433 135.5L104.483 134.85C106.283 134.35 109.167 134.1 113.133 134.1C113.6 134.733 113.833 135.767 113.833 137.2C116.833 134.967 119.217 133.85 120.983 133.85C123.217 133.85 124.533 135 124.933 137.3C125.833 136.567 127 135.817 128.433 135.05C129.9 134.25 131.2 133.85 132.333 133.85C133.5 133.85 134.467 134.233 135.233 135C136 135.733 136.383 136.767 136.383 138.1C136.383 139.433 136.017 141.633 135.283 144.7C134.55 147.767 134.183 149.833 134.183 150.9C134.183 151.933 134.333 152.45 134.633 152.45C134.833 152.45 135.517 152.133 136.683 151.5L137.233 151.2L138.133 152.95C137.267 153.817 136.083 154.65 134.583 155.45C133.117 156.217 131.817 156.6 130.683 156.6C128.183 156.6 126.933 155.183 126.933 152.35C126.933 151.317 127.283 149.25 127.983 146.15C128.717 143.017 129.083 140.983 129.083 140.05C129.083 139.083 128.8 138.6 128.233 138.6C127.267 138.6 126.167 138.967 124.933 139.7C124.867 140.367 124.4 142.633 123.533 146.5C122.7 150.367 122.283 153.367 122.283 155.5C121.317 155.933 119.05 156.15 115.483 156.15C115.417 155.783 115.383 154.9 115.383 153.5C115.383 152.1 115.767 149.717 116.533 146.35C117.333 142.983 117.733 140.85 117.733 139.95C117.733 139.05 117.417 138.6 116.783 138.6C115.783 138.6 114.683 139 113.483 139.8C113.417 140.1 113.083 141.567 112.483 144.2C111.283 149.467 110.683 153.217 110.683 155.45C109.517 155.917 107.417 156.15 104.383 156.15ZM164.452 152.95C161.619 155.383 159.119 156.6 156.952 156.6C154.819 156.6 153.585 155.533 153.252 153.4C152.252 154.4 151.135 155.183 149.902 155.75C148.669 156.317 147.585 156.6 146.652 156.6C145.052 156.6 143.685 155.9 142.552 154.5C141.419 153.1 140.852 150.933 140.852 148C140.852 143.6 141.785 140.15 143.652 137.65C145.519 135.117 147.619 133.85 149.952 133.85C152.319 133.85 154.302 134.383 155.902 135.45C156.935 130.05 157.452 125.8 157.452 122.7L157.202 120.6C159.702 119.733 162.152 119.3 164.552 119.3C164.819 119.867 164.952 120.517 164.952 121.25C164.952 123.683 164.219 128.633 162.752 136.1C161.285 143.533 160.552 148.583 160.552 151.25C160.552 152.05 160.735 152.45 161.102 152.45C161.302 152.45 161.935 152.133 163.002 151.5L163.502 151.2L164.452 152.95ZM152.402 136.8C151.235 136.8 150.219 137.95 149.352 140.25C148.519 142.55 148.102 144.833 148.102 147.1C148.102 149.333 148.252 150.767 148.552 151.4C148.885 152.033 149.369 152.35 150.002 152.35C151.102 152.35 152.185 151.9 153.252 151C153.352 149.667 154.102 145.233 155.502 137.7C154.369 137.1 153.335 136.8 152.402 136.8ZM181.75 135.3C181.816 135.233 182 134.8 182.3 134C183.866 134 185.966 134.467 188.6 135.4C187.766 138.167 187.1 141.067 186.6 144.1C186.1 147.1 185.85 149.25 185.85 150.55C185.85 151.817 185.983 152.45 186.25 152.45C186.45 152.45 187.183 152.133 188.45 151.5L189.05 151.2L189.95 152.95C189.65 153.217 189.25 153.55 188.75 153.95C188.283 154.35 187.383 154.9 186.05 155.6C184.716 156.267 183.516 156.6 182.45 156.6C180.383 156.6 179.183 155.667 178.85 153.8C176.716 155.667 174.783 156.6 173.05 156.6C171.35 156.6 169.9 155.933 168.7 154.6C167.533 153.267 166.95 151.167 166.95 148.3C166.95 143.833 167.866 140.317 169.7 137.75C171.533 135.15 173.75 133.85 176.35 133.85C178.216 133.85 180.016 134.333 181.75 135.3ZM176.05 152.35C176.85 152.35 177.75 152.033 178.75 151.4C178.983 146.7 179.766 142.05 181.1 137.45C180.1 137.017 179.25 136.8 178.55 136.8C177.35 136.8 176.316 137.983 175.45 140.35C174.616 142.683 174.2 145.267 174.2 148.1C174.2 150.933 174.816 152.35 176.05 152.35ZM195.723 156.6C194.59 156.6 193.64 156.217 192.873 155.45C192.14 154.683 191.773 153.617 191.773 152.25C191.773 150.85 192.59 146.433 194.223 139C195.89 131.533 196.723 126.15 196.723 122.85L196.423 120.65C199.023 119.75 201.456 119.3 203.723 119.3C204.056 119.767 204.223 120.583 204.223 121.75C204.223 124.417 203.373 129.583 201.673 137.25C200.006 144.883 199.173 149.333 199.173 150.6C199.173 151.833 199.323 152.45 199.623 152.45L203.123 151.2L204.023 152.95C202.89 153.85 201.506 154.683 199.873 155.45C198.273 156.217 196.89 156.6 195.723 156.6ZM210.004 156.6C208.871 156.6 207.921 156.217 207.154 155.45C206.421 154.683 206.054 153.617 206.054 152.25C206.054 150.85 206.871 146.433 208.504 139C210.171 131.533 211.004 126.15 211.004 122.85L210.704 120.65C213.304 119.75 215.738 119.3 218.004 119.3C218.338 119.767 218.504 120.583 218.504 121.75C218.504 124.417 217.654 129.583 215.954 137.25C214.288 144.883 213.454 149.333 213.454 150.6C213.454 151.833 213.604 152.45 213.904 152.45L217.404 151.2L218.304 152.95C217.171 153.85 215.788 154.683 214.154 155.45C212.554 156.217 211.171 156.6 210.004 156.6Z" fill="#FAFAFA"/>
<path d="M58.6426 180.74L55.2148 167.859H56.9727L58.9258 176.307C59.1536 177.283 59.3359 178.162 59.4727 178.943L60.0488 176.561L62.5098 167.859H64.5605L66.4062 174.373C66.875 176.033 67.2103 177.557 67.4121 178.943C67.5488 178.273 67.7604 177.335 68.0469 176.131L70.0684 167.859H71.7871L68.252 180.74H66.6113L63.8965 170.926C63.6621 170.073 63.5254 169.568 63.4863 169.412C63.3626 169.979 63.2389 170.483 63.1152 170.926L60.3809 180.74H58.6426ZM79.5703 177.732L81.2012 177.938C80.6608 179.949 79.2936 180.955 77.0996 180.955C75.6673 180.955 74.5573 180.506 73.7695 179.607C73.0208 178.755 72.6465 177.602 72.6465 176.15C72.6465 174.705 73.0078 173.536 73.7305 172.645C74.5117 171.681 75.6055 171.199 77.0117 171.199C78.3854 171.199 79.4499 171.674 80.2051 172.625C80.9082 173.504 81.2598 174.646 81.2598 176.053C81.2598 176.15 81.2565 176.294 81.25 176.482H74.2871C74.3392 177.394 74.5898 178.133 75.0391 178.699C75.5404 179.331 76.2305 179.646 77.1094 179.646C78.2878 179.646 79.1081 179.008 79.5703 177.732ZM74.375 175.174H79.5898C79.5182 174.393 79.3164 173.803 78.9844 173.406C78.4831 172.801 77.832 172.498 77.0312 172.498C76.263 172.498 75.6348 172.755 75.1465 173.27C74.6842 173.764 74.4271 174.399 74.375 175.174ZM89.7266 180.74V167.859H91.4746L98.2422 177.977V167.859H99.8828V180.74H98.1348L91.3672 170.613V180.74H89.7266ZM108.945 177.732L110.576 177.938C110.036 179.949 108.669 180.955 106.475 180.955C105.042 180.955 103.932 180.506 103.145 179.607C102.396 178.755 102.021 177.602 102.021 176.15C102.021 174.705 102.383 173.536 103.105 172.645C103.887 171.681 104.98 171.199 106.387 171.199C107.76 171.199 108.825 171.674 109.58 172.625C110.283 173.504 110.635 174.646 110.635 176.053C110.635 176.15 110.632 176.294 110.625 176.482H103.662C103.714 177.394 103.965 178.133 104.414 178.699C104.915 179.331 105.605 179.646 106.484 179.646C107.663 179.646 108.483 179.008 108.945 177.732ZM103.75 175.174H108.965C108.893 174.393 108.691 173.803 108.359 173.406C107.858 172.801 107.207 172.498 106.406 172.498C105.638 172.498 105.01 172.755 104.521 173.27C104.059 173.764 103.802 174.399 103.75 175.174ZM115.166 180.74L111.611 171.404H113.281L115.293 177C115.508 177.605 115.706 178.23 115.889 178.875C116.025 178.387 116.221 177.794 116.475 177.098L118.545 171.404H120.176L116.641 180.74H115.166ZM127.969 177.732L129.6 177.938C129.059 179.949 127.692 180.955 125.498 180.955C124.066 180.955 122.956 180.506 122.168 179.607C121.419 178.755 121.045 177.602 121.045 176.15C121.045 174.705 121.406 173.536 122.129 172.645C122.91 171.681 124.004 171.199 125.41 171.199C126.784 171.199 127.848 171.674 128.604 172.625C129.307 173.504 129.658 174.646 129.658 176.053C129.658 176.15 129.655 176.294 129.648 176.482H122.686C122.738 177.394 122.988 178.133 123.438 178.699C123.939 179.331 124.629 179.646 125.508 179.646C126.686 179.646 127.507 179.008 127.969 177.732ZM122.773 175.174H127.988C127.917 174.393 127.715 173.803 127.383 173.406C126.882 172.801 126.23 172.498 125.43 172.498C124.661 172.498 124.033 172.755 123.545 173.27C123.083 173.764 122.826 174.399 122.773 175.174ZM131.582 180.74V171.404H132.998V172.82C133.597 171.74 134.271 171.199 135.02 171.199C135.553 171.199 136.097 171.368 136.65 171.707L136.104 173.172C135.719 172.944 135.332 172.83 134.941 172.83C134.18 172.83 133.675 173.224 133.428 174.012C133.252 174.565 133.164 175.18 133.164 175.857V180.74H131.582ZM143.564 176.6L145.166 176.463C145.316 177.719 145.928 178.582 147.002 179.051C147.588 179.305 148.245 179.432 148.975 179.432C150.342 179.432 151.286 179.07 151.807 178.348C152.054 178.009 152.178 177.641 152.178 177.244C152.178 176.417 151.673 175.812 150.664 175.428C150.26 175.271 149.453 175.053 148.242 174.773C147.201 174.533 146.413 174.272 145.879 173.992C144.661 173.348 144.053 172.413 144.053 171.189C144.053 170.486 144.251 169.855 144.648 169.295C145.039 168.755 145.563 168.348 146.221 168.074C146.93 167.781 147.721 167.635 148.594 167.635C150.599 167.635 152.002 168.24 152.803 169.451C153.193 170.05 153.402 170.727 153.428 171.482L151.797 171.609C151.621 169.962 150.576 169.139 148.662 169.139C147.881 169.139 147.233 169.266 146.719 169.52C146.035 169.852 145.693 170.369 145.693 171.072C145.693 171.73 146.064 172.231 146.807 172.576C147.113 172.719 147.767 172.905 148.77 173.133C150.163 173.445 151.113 173.719 151.621 173.953C153.086 174.624 153.818 175.672 153.818 177.098C153.818 177.833 153.607 178.504 153.184 179.109C152.773 179.689 152.227 180.138 151.543 180.457C150.807 180.796 149.977 180.965 149.053 180.965C146.761 180.965 145.166 180.281 144.268 178.914C143.818 178.23 143.584 177.459 143.564 176.6ZM155.918 180.74V167.859H157.5V180.74H155.918ZM166.348 177.732L167.979 177.938C167.438 179.949 166.071 180.955 163.877 180.955C162.445 180.955 161.335 180.506 160.547 179.607C159.798 178.755 159.424 177.602 159.424 176.15C159.424 174.705 159.785 173.536 160.508 172.645C161.289 171.681 162.383 171.199 163.789 171.199C165.163 171.199 166.227 171.674 166.982 172.625C167.686 173.504 168.037 174.646 168.037 176.053C168.037 176.15 168.034 176.294 168.027 176.482H161.064C161.117 177.394 161.367 178.133 161.816 178.699C162.318 179.331 163.008 179.646 163.887 179.646C165.065 179.646 165.885 179.008 166.348 177.732ZM161.152 175.174H166.367C166.296 174.393 166.094 173.803 165.762 173.406C165.26 172.801 164.609 172.498 163.809 172.498C163.04 172.498 162.412 172.755 161.924 173.27C161.462 173.764 161.204 174.399 161.152 175.174ZM176.367 177.732L177.998 177.938C177.458 179.949 176.09 180.955 173.896 180.955C172.464 180.955 171.354 180.506 170.566 179.607C169.818 178.755 169.443 177.602 169.443 176.15C169.443 174.705 169.805 173.536 170.527 172.645C171.309 171.681 172.402 171.199 173.809 171.199C175.182 171.199 176.247 171.674 177.002 172.625C177.705 173.504 178.057 174.646 178.057 176.053C178.057 176.15 178.053 176.294 178.047 176.482H171.084C171.136 177.394 171.387 178.133 171.836 178.699C172.337 179.331 173.027 179.646 173.906 179.646C175.085 179.646 175.905 179.008 176.367 177.732ZM171.172 175.174H176.387C176.315 174.393 176.113 173.803 175.781 173.406C175.28 172.801 174.629 172.498 173.828 172.498C173.06 172.498 172.432 172.755 171.943 173.27C171.481 173.764 171.224 174.399 171.172 175.174ZM179.99 184.314V171.404H181.436V172.615C182.113 171.671 183.014 171.199 184.141 171.199C185.82 171.199 186.986 171.98 187.637 173.543C187.943 174.292 188.096 175.112 188.096 176.004C188.096 178.061 187.428 179.507 186.094 180.34C185.436 180.75 184.749 180.955 184.033 180.955C183.018 180.955 182.197 180.561 181.572 179.773V184.314H179.99ZM181.426 176.131C181.426 177.075 181.602 177.859 181.953 178.484C182.389 179.259 183.047 179.646 183.926 179.646C184.824 179.646 185.498 179.24 185.947 178.426C186.305 177.781 186.484 176.971 186.484 175.994C186.484 175.063 186.305 174.275 185.947 173.631C185.505 172.837 184.854 172.439 183.994 172.439C183.128 172.439 182.461 172.859 181.992 173.699C181.615 174.383 181.426 175.193 181.426 176.131Z" fill="#8D91F7"/>
</svg>
