<svg width="410" height="410" viewBox="0 0 410 410" fill="none" xmlns="http://www.w3.org/2000/svg">
<path fill-rule="evenodd" clip-rule="evenodd" d="M129.904 75C58.1599 116.421 33.5786 208.16 75 279.904L334.808 129.904C293.386 58.1599 201.648 33.5786 129.904 75Z" fill="#1D1D1D"/>
<path fill-rule="evenodd" clip-rule="evenodd" d="M204.904 204.904L75 279.904C116.421 351.648 208.16 376.229 279.904 334.808L204.904 204.904Z" fill="#585858"/>
<path fill-rule="evenodd" clip-rule="evenodd" d="M204.904 204.904L75 279.904C116.421 351.648 208.16 376.229 279.904 334.808L204.904 204.904Z" fill="#585858"/>
<path fill-rule="evenodd" clip-rule="evenodd" d="M204.904 204.904L75 279.904C116.421 351.648 208.16 376.229 279.904 334.808L204.904 204.904Z" fill="#585858"/>
<path fill-rule="evenodd" clip-rule="evenodd" d="M204.904 204.904L279.904 334.808C351.648 293.386 376.229 201.648 334.808 129.904L204.904 204.904Z" fill="#585858"/>
<path fill-rule="evenodd" clip-rule="evenodd" d="M204.904 204.904L279.904 334.808C351.648 293.386 376.229 201.648 334.808 129.904L204.904 204.904Z" fill="#585858"/>
<path fill-rule="evenodd" clip-rule="evenodd" d="M204.904 204.904L279.904 334.808C351.648 293.386 376.229 201.648 334.808 129.904L204.904 204.904Z" fill="#FAFAFA"/>
</svg>
